<svg width="142" height="127" viewBox="0 0 142 127" fill="none" xmlns="http://www.w3.org/2000/svg">
<path d="M22.6387 87.7242L9.08981 95.276L22.6387 87.7242ZM38.631 31.4556L31.0792 17.9067L38.631 31.4556ZM86.4591 117.265L78.9073 103.716L86.4591 117.265ZM16.5677 55.5918L2.50056 51.5937L16.5677 55.5918ZM46.7749 109.787L42.7769 123.855L46.7749 109.787ZM113.206 36.2287L110.274 5.81274C109.956 2.49978 105.737 1.30217 103.724 3.95245L59.3221 62.4281C57.3952 64.9659 59.411 68.5826 62.583 68.2785L135.67 61.2688C138.983 60.9508 140.184 56.7324 137.533 54.7189L113.206 36.2287Z" fill="#FBEDCD"/>
<path d="M22.6387 87.7242L9.08981 95.276M38.631 31.4556L31.0792 17.9067M86.4591 117.265L78.9073 103.716M16.5677 55.5918L2.50056 51.5937M46.7749 109.787L42.7769 123.855M113.206 36.2287L110.274 5.81275C109.956 2.49978 105.737 1.30217 103.724 3.95246L59.3221 62.4281C57.3952 64.9659 59.411 68.5826 62.583 68.2785L135.67 61.2688C138.983 60.9508 140.184 56.7324 137.533 54.7189L113.206 36.2287Z" stroke="#F0BD4C" stroke-width="5" stroke-linecap="round" stroke-linejoin="round"/>
</svg>
