<svg width="140" height="139" viewBox="0 0 140 139" fill="none" xmlns="http://www.w3.org/2000/svg">
<path d="M107.333 106.562L118.256 117.575L107.333 106.562ZM48.8364 106.323L37.8234 117.246L48.8364 106.323ZM118.585 37.1424L107.572 48.0656L118.585 37.1424ZM78.0248 121.067L77.9649 135.691L78.0248 121.067ZM122.077 77.3737L136.701 77.4336L122.077 77.3737ZM33.3392 33.2199L4.83795 44.2382C1.7334 45.4378 1.7169 49.8236 4.81153 51.0479L73.0882 78.0513C76.0514 79.2232 78.9912 76.3074 77.8436 73.3347L51.4003 4.83917C50.2013 1.73461 45.8156 1.71519 44.5905 4.80982L33.3392 33.2199Z" fill="#FBEDCD"/>
<path d="M107.333 106.562L118.256 117.575M48.8364 106.323L37.8234 117.246M118.585 37.1424L107.572 48.0656M78.0248 121.067L77.9649 135.691M122.077 77.3737L136.701 77.4336M33.3392 33.2199L4.83795 44.2382C1.7334 45.4378 1.71691 49.8236 4.81153 51.0479L73.0882 78.0513C76.0514 79.2232 78.9912 76.3074 77.8436 73.3347L51.4003 4.83916C50.2013 1.73462 45.8156 1.71519 44.5905 4.80981L33.3392 33.2199Z" stroke="#42AEDD" stroke-width="5" stroke-linecap="round" stroke-linejoin="round"/>
</svg>
