<svg width="54" height="54" viewBox="0 0 54 54" fill="none" xmlns="http://www.w3.org/2000/svg">
<path d="M53.9995 26.833C53.9364 21.6559 52.4041 16.6049 49.5832 12.2747C46.7623 7.94443 42.7706 4.51537 38.0778 2.39135C33.3848 0.267331 28.1864 -0.46319 23.0948 0.285771C18.0032 1.03477 13.2303 3.23204 9.33819 6.61892C5.4461 10.0058 2.59694 14.4411 1.12624 19.4026C-0.344423 24.3642 -0.375406 29.6451 1.037 34.6238C2.44942 39.6025 5.24636 44.0711 9.09846 47.504C12.9505 50.9369 17.6974 53.1908 22.7799 54V34.7454H16.0297V26.833H22.7799V20.8223C22.6236 19.4247 22.7741 18.0096 23.221 16.6769C23.6678 15.3443 24.3999 14.1265 25.3655 13.1096C26.3311 12.0927 27.5067 11.3014 28.8095 10.7916C30.1123 10.2818 31.5106 10.066 32.9052 10.1593C34.9295 10.1872 36.9492 10.3688 38.9466 10.7026V17.4944H35.5715C34.9896 17.4205 34.3983 17.4792 33.8421 17.6661C33.2855 17.853 32.7779 18.1632 32.3567 18.574C31.9355 18.9848 31.6115 19.4855 31.4086 20.0392C31.2054 20.593 31.1288 21.1856 31.1838 21.7731V26.9009H38.6766L37.4615 34.8133H31.2176V53.8302C37.5962 52.8152 43.402 49.5334 47.5818 44.5802C51.7615 39.6269 54.0383 33.3306 53.9995 26.833Z" fill="#42AEDD"/>
</svg>
