<svg width="64" height="50" viewBox="0 0 64 50" fill="none" xmlns="http://www.w3.org/2000/svg">
<path d="M6.85712 8.99995C6.85712 7.73757 7.88048 6.71423 9.14283 6.71423H54.8571C56.1195 6.71423 57.1428 7.73757 57.1428 8.99995C57.1428 10.2623 56.1195 11.2857 54.8571 11.2857H9.14283C7.88048 11.2857 6.85712 10.2623 6.85712 8.99995Z" fill="#9146A8"/>
<path d="M6.85712 24.9999C6.85712 23.7375 7.88048 22.7142 9.14283 22.7142H54.8571C56.1195 22.7142 57.1428 23.7375 57.1428 24.9999C57.1428 26.2623 56.1195 27.2857 54.8571 27.2857H9.14283C7.88048 27.2857 6.85712 26.2623 6.85712 24.9999Z" fill="#42AEDD"/>
<path d="M9.14283 38.7142C7.88048 38.7142 6.85712 39.7375 6.85712 40.9999C6.85712 42.2623 7.88048 43.2857 9.14283 43.2857H54.8571C56.1195 43.2857 57.1428 42.2623 57.1428 40.9999C57.1428 39.7375 56.1195 38.7142 54.8571 38.7142H9.14283Z" fill="#F03591"/>
</svg>
