<svg width="54" height="54" viewBox="0 0 54 54" fill="none" xmlns="http://www.w3.org/2000/svg">
<path d="M37.9631 18.7059C37.7288 18.0991 37.37 17.5481 36.9099 17.0884C36.4497 16.6287 35.8983 16.2705 35.2913 16.0369C34.4554 15.7273 33.5725 15.5637 32.6813 15.5531C31.1991 15.4856 30.7547 15.4687 27 15.4687C23.2453 15.4687 22.8009 15.4856 21.3188 15.5531C20.4265 15.5633 19.5427 15.727 18.7059 16.0369C18.0991 16.2712 17.5481 16.63 17.0884 17.0901C16.6287 17.5503 16.2705 18.1017 16.0369 18.7087C15.7273 19.5446 15.5637 20.4275 15.5531 21.3187C15.4856 22.8009 15.4688 23.2453 15.4688 27C15.4688 30.7547 15.4856 31.1991 15.5531 32.6812C15.5633 33.5735 15.727 34.4573 16.0369 35.2941C16.2712 35.9009 16.63 36.4518 17.0902 36.9116C17.5503 37.3713 18.1017 37.7295 18.7088 37.9631C19.5446 38.2727 20.4275 38.4363 21.3188 38.4469C22.8009 38.5144 23.2453 38.5284 27 38.5284C30.7547 38.5284 31.1991 38.5144 32.6813 38.4441C33.5733 38.4347 34.4571 38.2721 35.2941 37.9631C35.9009 37.7288 36.4519 37.37 36.9116 36.9098C37.3713 36.4497 37.7295 35.8983 37.9631 35.2912C38.2727 34.4554 38.4363 33.5725 38.4469 32.6812C38.5144 31.1991 38.5284 30.7547 38.5284 27C38.5284 23.2453 38.5144 22.8009 38.4441 21.3187C38.4348 20.4267 38.2721 19.5429 37.9631 18.7059ZM27 34.2225C25.5715 34.2225 24.1751 33.7989 22.9874 33.0053C21.7997 32.2117 20.8739 31.0837 20.3273 29.7639C19.7806 28.4442 19.6376 26.992 19.9163 25.591C20.195 24.1899 20.8828 22.903 21.8929 21.8929C22.903 20.8828 24.1899 20.195 25.591 19.9163C26.992 19.6376 28.4442 19.7806 29.7639 20.3273C31.0837 20.8739 32.2117 21.7997 33.0053 22.9874C33.7989 24.1751 34.2225 25.5715 34.2225 27C34.2225 28.9155 33.4616 30.7526 32.1071 32.1071C30.7526 33.4616 28.9155 34.2225 27 34.2225ZM34.5066 21.1809C34.1728 21.1809 33.8465 21.082 33.569 20.8965C33.2915 20.7111 33.0752 20.4476 32.9475 20.1392C32.8198 19.8309 32.7864 19.4916 32.8515 19.1642C32.9166 18.8369 33.0773 18.5362 33.3133 18.3002C33.5493 18.0642 33.85 17.9035 34.1774 17.8384C34.5047 17.7732 34.844 17.8067 35.1523 17.9344C35.4607 18.0621 35.7242 18.2784 35.9097 18.5559C36.0951 18.8334 36.1941 19.1597 36.1941 19.4934C36.1941 19.941 36.0163 20.3702 35.6998 20.6867C35.3833 21.0031 34.9541 21.1809 34.5066 21.1809ZM31.6884 27C31.6884 27.9273 31.4135 28.8337 30.8983 29.6047C30.3831 30.3758 29.6509 30.9767 28.7942 31.3315C27.9375 31.6864 26.9948 31.7792 26.0853 31.5983C25.1759 31.4174 24.3405 30.9709 23.6848 30.3152C23.0291 29.6595 22.5826 28.8241 22.4017 27.9147C22.2208 27.0052 22.3136 26.0625 22.6685 25.2058C23.0233 24.3491 23.6242 23.6169 24.3953 23.1017C25.1663 22.5865 26.0727 22.3116 27 22.3116C28.2435 22.3116 29.436 22.8055 30.3152 23.6848C31.1945 24.564 31.6884 25.7565 31.6884 27ZM27 0C21.6599 0 16.4397 1.58352 11.9996 4.55032C7.55949 7.51712 4.09883 11.7339 2.05526 16.6675C0.0116986 21.6011 -0.522991 27.0299 0.518809 32.2674C1.56061 37.5049 4.13211 42.3159 7.90813 46.0919C11.6841 49.8679 16.4951 52.4394 21.7326 53.4812C26.9701 54.523 32.3989 53.9883 37.3325 51.9447C42.2661 49.9012 46.4829 46.4405 49.4497 42.0004C52.4165 37.5603 54 32.3401 54 27C54 19.8392 51.1554 12.9716 46.0919 7.90811C41.0284 2.84463 34.1609 0 27 0ZM40.9781 32.7966C40.9543 33.9635 40.7327 35.118 40.3228 36.2109C39.9616 37.1449 39.4093 37.9931 38.7012 38.7012C37.9931 39.4093 37.1449 39.9616 36.2109 40.3228C35.1189 40.7324 33.9654 40.954 32.7994 40.9781C31.2975 41.0456 30.8194 41.0625 27 41.0625C23.1806 41.0625 22.7025 41.0456 21.2006 40.9781C20.0346 40.954 18.8811 40.7324 17.7891 40.3228C16.8551 39.9616 16.0069 39.4093 15.2988 38.7012C14.5907 37.9931 14.0384 37.1449 13.6772 36.2109C13.2676 35.1189 13.046 33.9654 13.0219 32.7994C12.9544 31.2975 12.9375 30.8194 12.9375 27C12.9375 23.1806 12.9544 22.7025 13.0219 21.2006C13.0451 20.0347 13.2657 18.8812 13.6744 17.7891C14.0356 16.8543 14.5882 16.0054 15.2968 15.2968C16.0054 14.5882 16.8543 14.0355 17.7891 13.6744C18.8812 13.2657 20.0348 13.0451 21.2006 13.0219C22.7025 12.9544 23.1806 12.9375 27 12.9375C30.8194 12.9375 31.2975 12.9544 32.7994 13.0219C33.9653 13.0451 35.1188 13.2657 36.2109 13.6744C37.1452 14.0359 37.9936 14.5886 38.7017 15.2972C39.4098 16.0058 39.9619 16.8546 40.3228 17.7891C40.7324 18.8811 40.954 20.0346 40.9781 21.2006C41.0456 22.7025 41.0625 23.1806 41.0625 27C41.0625 30.8194 41.0456 31.2947 40.9781 32.7966Z" fill="#F03591"/>
</svg>
