<svg width="40" height="40" viewBox="0 0 40 40" fill="none" xmlns="http://www.w3.org/2000/svg">
<g clip-path="url(#clip0_115_376)">
<path d="M40 35.5556C40 36.7343 39.5317 37.8648 38.6983 38.6983C37.8648 39.5317 36.7343 40 35.5556 40H4.44444C3.2657 40 2.13524 39.5317 1.30175 38.6983C0.468253 37.8648 0 36.7343 0 35.5556V4.44444C0 3.2657 0.468253 2.13524 1.30175 1.30175C2.13524 0.468253 3.2657 0 4.44444 0L35.5556 0C36.7343 0 37.8648 0.468253 38.6983 1.30175C39.5317 2.13524 40 3.2657 40 4.44444V35.5556Z" fill="#BABABA" fill-opacity="0.8"/>
<path d="M11.9746 10.38C11.9746 8.72669 12.9046 7.69336 14.6279 7.69336H20.6913C25.9968 7.69336 29.2691 10.0711 29.2691 15.4789C29.2691 19.2689 26.4102 21.4389 22.8957 21.99L28.7535 28.2611C29.2346 28.7778 29.4413 29.2945 29.4413 29.7767C29.4413 31.12 28.3735 32.4289 26.8591 32.4289C26.2379 32.4289 25.4113 32.1878 24.8602 31.5334L17.2124 22.2656H17.1435V29.7411C17.1435 31.4645 16.0413 32.4278 14.5591 32.4278C13.0768 32.4278 11.9746 31.4645 11.9746 29.7411V10.38ZM17.1424 18.5445H20.6902C22.5846 18.5445 23.8946 17.4078 23.8946 15.4789C23.8946 13.5156 22.5835 12.4467 20.6902 12.4467H17.1424V18.5445Z" fill="black"/>
</g>
<defs>
<clipPath id="clip0_115_376">
<rect width="40" height="40" fill="white"/>
</clipPath>
</defs>
</svg>
