<svg width="45" height="44" viewBox="0 0 45 44" fill="none" xmlns="http://www.w3.org/2000/svg">
<path fill-rule="evenodd" clip-rule="evenodd" d="M5.20838 21.875C5.20838 12.095 13.1367 4.16667 22.9167 4.16667C32.6967 4.16667 40.625 12.095 40.625 21.875C40.625 31.655 32.6967 39.5833 22.9167 39.5833C19.4329 39.5833 16.1901 38.5796 13.4541 36.846C12.9449 36.5235 12.321 36.4373 11.7434 36.6096L5.74519 38.3998L8.00361 33.1152C8.27054 32.4906 8.21623 31.7752 7.85807 31.1981C6.17854 28.4917 5.20838 25.2998 5.20838 21.875ZM22.9167 0C10.8355 0 1.04171 9.79377 1.04171 21.875C1.04171 25.7044 2.02742 29.309 3.75969 32.4431L0.167649 40.8479C-0.149897 41.591 -0.00914286 42.4506 0.528795 43.0535C1.06673 43.6567 1.90484 43.8942 2.67915 43.6629L12.0529 40.8656C15.2551 42.701 18.966 43.75 22.9167 43.75C34.9979 43.75 44.7917 33.9562 44.7917 21.875C44.7917 9.79377 34.9979 0 22.9167 0ZM27.6927 26.4217L24.9548 28.3502C23.6725 27.6198 22.2548 26.6002 20.8327 25.1781C19.3544 23.6998 18.2584 22.1735 17.4503 20.7735L19.1902 19.2967C19.9369 18.6629 20.1413 17.5944 19.6813 16.7297L17.4643 12.5631C17.1657 12.002 16.6274 11.6079 16.0024 11.4928C15.3774 11.3777 14.734 11.5542 14.2551 11.9721L13.5978 12.5457C12.0171 13.9253 11.0823 16.1923 11.8571 18.4877C12.6604 20.8673 14.3746 24.6125 17.8865 28.1244C21.6648 31.9027 25.5027 33.3906 27.7471 33.9685C29.5554 34.434 31.2667 33.81 32.4725 32.8275L33.7048 31.8233C34.2319 31.394 34.5163 30.7342 34.4667 30.056C34.4169 29.3779 34.0394 28.7667 33.4552 28.4185L29.9588 26.3352C29.2525 25.9146 28.365 25.9483 27.6927 26.4217Z" fill="white"/>
</svg>
